    <svg width="1520" height="528" viewBox="0 0 1520 528" fill="none" xmlns="http://www.w3.org/2000/svg">
<g clip-path="url(#clip0_1_177)">
<rect width="1520" height="528" rx="32" fill="#3F87FE"/>

<ellipse cx="1309.51" cy="200.36" rx="4.92593" ry="4.66309" fill="white"/>
<path d="M1320.5 100.881C1320.5 106.588 1315.6 111.261 1309.51 111.261C1303.41 111.261 1298.51 106.588 1298.51 100.881C1298.51 95.173 1303.41 90.5 1309.51 90.5C1315.6 90.5 1320.5 95.173 1320.5 100.881Z" fill="#3F87FE" stroke="white"/>
<path d="M1358.76 100.88V200.36" stroke="white" stroke-linecap="round"/>
<ellipse cx="1358.76" cy="200.36" rx="4.92593" ry="4.66309" fill="white"/>
<path d="M1369.76 100.881C1369.76 106.588 1364.86 111.261 1358.76 111.261C1352.67 111.261 1347.77 106.588 1347.77 100.881C1347.77 95.173 1352.67 90.5 1358.76 90.5C1364.86 90.5 1369.76 95.173 1369.76 100.881Z" fill="#3F87FE" stroke="white"/>
<path d="M1408.03 100.88V200.36" stroke="white" stroke-linecap="round"/>
<ellipse cx="1408.03" cy="200.36" rx="4.92593" ry="4.66309" fill="white"/>
<path d="M1419.02 100.881C1419.02 106.588 1414.12 111.261 1408.03 111.261C1401.93 111.261 1397.03 106.588 1397.03 100.881C1397.03 95.173 1401.93 90.5 1408.03 90.5C1414.12 90.5 1419.02 95.173 1419.02 100.881Z" fill="#3F87FE" stroke="white"/>
<path d="M933.494 505.015L1038.58 505.015" stroke="white" stroke-linecap="round"/>
<ellipse cx="1038.58" cy="505.016" rx="4.66309" ry="4.92593" transform="rotate(-90 1038.58 505.016)" fill="white"/>
<rect x="1153.52" y="299.839" width="287.346" height="272.014" rx="2" stroke="white" stroke-linecap="round"/>
<rect x="1201.64" y="342.986" width="287.346" height="272.014" rx="2" stroke="white" stroke-linecap="round"/>
<rect x="1097.69" y="251.654" width="359.593" height="340.406" rx="2" stroke="white" stroke-linecap="round"/>
<path d="M1112.47 100.88V200.36" stroke="white" stroke-linecap="round"/>
<ellipse cx="1112.47" cy="200.36" rx="4.92593" ry="4.66309" fill="white"/>
<path d="M1123.46 100.88C1123.46 106.588 1118.57 111.261 1112.47 111.261C1106.37 111.261 1101.47 106.588 1101.47 100.88C1101.47 95.1728 1106.37 90.4998 1112.47 90.4998C1118.57 90.4998 1123.46 95.1728 1123.46 100.88Z" fill="#3F87FE" stroke="white"/>
<path d="M1161.73 100.88V200.36" stroke="white" stroke-linecap="round"/>
<ellipse cx="1161.73" cy="200.36" rx="4.92593" ry="4.66309" fill="white"/>
<path d="M1172.72 100.88C1172.72 106.588 1167.83 111.261 1161.73 111.261C1155.63 111.261 1150.73 106.588 1150.73 100.88C1150.73 95.1728 1155.63 90.4998 1161.73 90.4998C1167.83 90.4998 1172.72 95.1728 1172.72 100.88Z" fill="#3F87FE" stroke="white"/>
<path d="M1210.99 100.88V200.36" stroke="white" stroke-linecap="round"/>
<ellipse cx="1210.99" cy="200.36" rx="4.92593" ry="4.66309" fill="white"/>
<path d="M1221.98 100.88C1221.98 106.588 1217.09 111.261 1210.99 111.261C1204.89 111.261 1199.99 106.588 1199.99 100.88C1199.99 95.1728 1204.89 90.4998 1210.99 90.4998C1217.09 90.4998 1221.98 95.1728 1221.98 100.88Z" fill="#3F87FE" stroke="white"/>
<path d="M1260.25 100.88V200.36" stroke="white" stroke-linecap="round"/>
<ellipse cx="1260.25" cy="200.36" rx="4.92593" ry="4.66309" fill="white"/>
<path d="M1271.24 100.88C1271.24 106.588 1266.34 111.261 1260.25 111.261C1254.15 111.261 1249.25 106.588 1249.25 100.88C1249.25 95.1728 1254.15 90.4998 1260.25 90.4998C1266.34 90.4998 1271.24 95.1728 1271.24 100.88Z" fill="#3F87FE" stroke="white"/>
<path d="M933.494 494.635C939.592 494.635 944.488 499.308 944.488 505.015C944.488 510.723 939.592 515.396 933.494 515.396C927.396 515.396 922.5 510.723 922.5 505.015C922.5 499.308 927.396 494.635 933.494 494.635Z" fill="#3F87FE" stroke="white"/>
<path d="M933.494 458.385L1038.58 458.385" stroke="white" stroke-linecap="round"/>
<ellipse cx="1038.58" cy="458.384" rx="4.66309" ry="4.92593" transform="rotate(-90 1038.58 458.384)" fill="white"/>
<path d="M933.494 448.004C939.592 448.004 944.488 452.677 944.488 458.385C944.488 464.092 939.592 468.765 933.494 468.765C927.396 468.765 922.5 464.092 922.5 458.385C922.5 452.677 927.396 448.004 933.494 448.004Z" fill="#3F87FE" stroke="white"/>
<path d="M933.494 411.754L1038.58 411.754" stroke="white" stroke-linecap="round"/>
<ellipse cx="1038.58" cy="411.754" rx="4.66309" ry="4.92593" transform="rotate(-90 1038.58 411.754)" fill="white"/>
<path d="M933.494 401.373C939.592 401.373 944.488 406.046 944.488 411.754C944.488 417.461 939.592 422.134 933.494 422.134C927.396 422.134 922.5 417.461 922.5 411.754C922.5 406.046 927.396 401.373 933.494 401.373Z" fill="#3F87FE" stroke="white"/>
<path d="M933.494 365.123L1038.58 365.123" stroke="white" stroke-linecap="round"/>
<ellipse cx="1038.58" cy="365.123" rx="4.66309" ry="4.92593" transform="rotate(-90 1038.58 365.123)" fill="white"/>
<path d="M933.494 354.742C939.592 354.742 944.488 359.415 944.488 365.123C944.488 370.83 939.592 375.503 933.494 375.503C927.396 375.503 922.5 370.83 922.5 365.123C922.5 359.415 927.396 354.742 933.494 354.742Z" fill="#3F87FE" stroke="white"/>
<path d="M933.494 318.492L1038.58 318.492" stroke="white" stroke-linecap="round"/>
<ellipse cx="1038.58" cy="318.492" rx="4.66309" ry="4.92593" transform="rotate(-90 1038.58 318.492)" fill="white"/>
<path d="M933.494 308.111C939.592 308.111 944.488 312.784 944.488 318.492C944.488 324.199 939.592 328.872 933.494 328.872C927.396 328.872 922.5 324.199 922.5 318.492C922.5 312.784 927.396 308.111 933.494 308.111Z" fill="#3F87FE" stroke="white"/>
<path d="M933.494 271.861L1038.58 271.861" stroke="white" stroke-linecap="round"/>
<ellipse cx="1038.58" cy="271.861" rx="4.66309" ry="4.92593" transform="rotate(-90 1038.58 271.861)" fill="white"/>
<path d="M933.494 261.48C939.592 261.48 944.488 266.153 944.488 271.861C944.488 277.568 939.592 282.241 933.494 282.241C927.396 282.241 922.5 277.568 922.5 271.861C922.5 266.153 927.396 261.48 933.494 261.48Z" fill="#3F87FE" stroke="white"/>
</g>
<defs>
<clipPath id="clip0_1_177">
<rect width="1520" height="528" fill="white"/>
</clipPath>
</defs>
</svg>